<svg
  xmlns="http://www.w3.org/2000/svg"
  viewBox="0 0 64 64"
  role="img"
  aria-labelledby="faviconTitle"
>
  <title id="faviconTitle">Derwin Romero monogram</title>
  <defs>
    <linearGradient id="faviconBg" x1="8" y1="8" x2="56" y2="56" gradientUnits="userSpaceOnUse">
      <stop offset="0" stop-color="#142033" />
      <stop offset="1" stop-color="#0b1220" />
    </linearGradient>
  </defs>

  <rect x="4" y="4" width="56" height="56" rx="16" fill="url(#faviconBg)" />

  <path
    d="M18 16h10.5c8.8 0 14.3 5.8 14.3 16s-5.5 16-14.3 16H18V16Zm7.2 6.1v19.8h3c4.8 0 7.9-3.5 7.9-9.9 0-6.3-3.1-9.9-7.9-9.9h-3Z"
    fill="#f4f7fb"
  />

  <path
    d="M35.5 16H46c7.5 0 12.1 4.1 12.1 10.7 0 4.4-2.1 7.6-5.9 9.1L58.5 48h-8.3l-5.2-10.1h-2.3V48h-7.2V16Zm7.2 6v10.1h2.8c3.6 0 5.7-1.8 5.7-5.1 0-3.3-2.1-5-5.7-5h-2.8Z"
    fill="#ff6b81"
  />
</svg>
